<mxfile host="app.diagrams.net" agent="Mozilla/5.0 (Windows NT 10.0; Win64; x64) AppleWebKit/537.36 (KHTML, like Gecko) Chrome/131.0.0.0 Safari/537.36" version="25.0.3">
  <diagram name="Page-1" id="_uLYeb2zPesYP1GOalyP">
    <mxGraphModel dx="1444" dy="811" grid="1" gridSize="10" guides="1" tooltips="1" connect="1" arrows="1" fold="1" page="1" pageScale="1" pageWidth="827" pageHeight="1169" math="0" shadow="0">
      <root>
        <mxCell id="0" />
        <mxCell id="1" parent="0" />
        <mxCell id="5CpW7-6o7S_SjaxpTlcI-1" value="Administrateur" style="shape=umlActor;verticalLabelPosition=bottom;verticalAlign=top;html=1;outlineConnect=0;" vertex="1" parent="1">
          <mxGeometry x="60" y="850" width="30" height="60" as="geometry" />
        </mxCell>
        <mxCell id="5CpW7-6o7S_SjaxpTlcI-3" value="Visiteur" style="shape=umlActor;verticalLabelPosition=bottom;verticalAlign=top;html=1;outlineConnect=0;" vertex="1" parent="1">
          <mxGeometry x="60" y="500" width="30" height="60" as="geometry" />
        </mxCell>
        <mxCell id="5CpW7-6o7S_SjaxpTlcI-6" value="Utilisateur AuthentifiÃ©" style="shape=umlActor;verticalLabelPosition=bottom;verticalAlign=top;html=1;outlineConnect=0;" vertex="1" parent="1">
          <mxGeometry x="60" y="130" width="30" height="60" as="geometry" />
        </mxCell>
        <mxCell id="5CpW7-6o7S_SjaxpTlcI-7" value="ISGIDocs" style="rounded=0;whiteSpace=wrap;html=1;fillColor=#dae8fc;strokeColor=#6c8ebf;fontFamily=Helvetica;fontStyle=1;fontSize=20;" vertex="1" parent="1">
          <mxGeometry x="690" y="525" width="120" height="60" as="geometry" />
        </mxCell>
        <mxCell id="5CpW7-6o7S_SjaxpTlcI-17" value="" style="rounded=1;whiteSpace=wrap;html=1;rotation=90;" vertex="1" parent="1">
          <mxGeometry x="-80" y="330" width="990" height="492.5" as="geometry" />
        </mxCell>
      </root>
    </mxGraphModel>
  </diagram>
</mxfile>
